<?xml version="1.0" encoding="utf-8"?>
<!-- Generator: Adobe Illustrator 27.4.1, SVG Export Plug-In . SVG Version: 6.00 Build 0)  -->
<svg version="1.1" id="Capa_1" xmlns="http://www.w3.org/2000/svg" xmlns:xlink="http://www.w3.org/1999/xlink" x="0px" y="0px"
	 viewBox="0 0 595.28 841.89" style="enable-background:new 0 0 595.28 841.89;" xml:space="preserve">
<style type="text/css">
	.st0{fill:#FFFFFF;}
	.st1{fill:#FDF8F7;}
	.st2{fill:#FFFCFD;}
	.st3{fill:#E31319;}
	.st4{fill:#E31218;}
	.st5{fill:#E31216;}
	.st6{fill:#E31217;}
	.st7{fill:#E21117;}
	.st8{fill:#E21118;}
	.st9{fill:#E41418;}
	.st10{fill:#FFFEFE;}
	.st11{fill:#DC1317;}
	.st12{fill:#E21017;}
	.st13{fill:#D61319;}
	.st14{fill:#E31315;}
	.st15{fill:#FEFCFC;}
	.st16{fill:#DE0F16;}
	.st17{fill:#E00E17;}
	.st18{fill:#D91215;}
	.st19{fill:#FBFDFE;}
	.st20{fill:#DE0B16;}
	.st21{fill:#C11818;}
	.st22{fill:#E31215;}
	.st23{fill:#E31114;}
	.st24{fill:#E41916;}
	.st25{fill:#DC0E15;}
	.st26{fill:#FBFDFD;}
	.st27{fill:#E31113;}
	.st28{fill:#F9FCFE;}
	.st29{fill:#D31416;}
	.st30{fill:#FBFDFC;}
	.st31{fill:#D61117;}
	.st32{fill:#F6FBFE;}
	.st33{fill:#C31918;}
	.st34{fill:#FBFCFA;}
	.st35{fill:#E4141D;}
	.st36{fill:#F9CFCF;}
	.st37{fill:#FCF9FC;}
	.st38{fill:#D02417;}
	.st39{fill:#AA3729;}
	.st40{fill:#C4593A;}
	.st41{fill:#C58D87;}
	.st42{fill:#C11718;}
	.st43{fill:#AB6964;}
	.st44{fill:#E11D17;}
	.st45{fill:#DE0F17;}
	.st46{fill:#DE1719;}
	.st47{fill:#FBF5F8;}
	.st48{fill:#DC0D16;}
	.st49{fill:#F7F3F5;}
	.st50{fill:#F0E3E5;}
	.st51{fill:#F3A1B2;}
	.st52{fill:#F5BCC2;}
	.st53{fill:#E8807C;}
	.st54{fill:#F9CDD8;}
	.st55{fill:#FBDAD7;}
	.st56{fill:#F6B9C2;}
	.st57{fill:#E11119;}
	.st58{fill:#CD1418;}
	.st59{fill:#CD2217;}
	.st60{fill:#FEECE2;}
	.st61{fill:#F6B8D2;}
	.st62{fill:#C79C94;}
</style>
<g>
	<g>
		<path class="st0" d="M302.73,382.58c0,3.71-0.01,7.43,0.02,11.14c0,0.55-0.11,0.66-0.66,0.66c-10.27-0.02-20.55-0.02-30.82-0.02
			c0-13.99,0.01-27.99-0.02-41.98c0-0.63,0.12-0.76,0.75-0.75c10,0.03,20,0.03,30,0c0.63,0,0.75,0.12,0.75,0.75
			c-0.03,8.35-0.02,16.69-0.02,25.04c-0.53,0.26-0.7,0.93-1.27,1.16c-0.64-0.49-0.64-1.39-1.2-1.93c-0.48-0.51-0.93-1.06-1.52-1.45
			c-0.33-0.19-0.68-0.37-0.88-0.73c-0.37-0.92-1.02-1.24-2.07-1.03c-0.27,0.05-0.52-0.02-0.77-0.09c-0.17-0.06-0.31-0.16-0.42-0.3
			c-0.15-0.44-0.57-0.56-0.92-0.76c-0.5-1.24-0.95-2.5-1.69-3.63c-0.79-1.5-1.76-2.89-2.53-4.4c-0.14-0.3-0.28-0.6-0.43-0.9
			c-0.12-0.29-0.3-0.55-0.47-0.82c-0.11-0.25-0.21-0.5-0.37-0.72c-0.12-0.2-0.25-0.39-0.38-0.59c-0.1-0.18-0.16-0.37-0.11-0.59
			c0-0.15,0.12-0.28,0.06-0.43c-0.04-0.11-0.15-0.15-0.06-0.06c0.08,0.09-0.17,0.02-0.05,0.06c-0.01,0.09-0.02,0.18-0.03,0.27
			c0.01,0.1,0.01,0.2,0,0.31c-0.08,0.17-0.19,0.31-0.23,0.5c-0.02,0.08-0.04,0.15-0.06,0.23c-0.11,0.3-0.26,0.59-0.27,0.93
			c-0.01,0.35-0.13,0.68-0.16,1.03c0.03,1.29,0.4,2.47,1.13,3.53c1.03,2.01,2.34,3.86,3.31,5.9c0.1,0.2,0.18,0.41,0.24,0.62
			c0.03,0.13,0.04,0.26,0.05,0.4c-0.08,0.81-0.19,1.63-0.36,2.42c-0.12,0.58-0.33,1.22-1.16,1.15c-0.97-0.92-1.36-2.21-2.08-3.29
			c-0.78-1.17-1.37-2.44-2.06-3.65c-0.42-0.59-0.72-1.26-1.07-1.89c-0.14-0.29-0.24-0.6-0.36-0.9c-0.07-0.17-0.14-0.35-0.2-0.52
			c-0.02-0.06-0.04-0.13-0.07-0.19c-0.04-0.08-0.08-0.16-0.17-0.21c-0.21,0.06-0.05,0.21-0.07,0.31c0.02,0.21-0.04,0.4-0.13,0.58
			c-0.1,0.18-0.24,0.33-0.37,0.48c-0.2,0.27-0.22,0.6-0.36,0.89c-0.24,0.79-0.62,1.53-0.71,2.37c-0.13,1.29,0.3,1.7,1.6,1.44
			c0.09-0.01,0.18,0.01,0.26,0.05c1.28,2.04,2.47,4.14,3.52,6.31c0.66,1.56,1.02,3.14,0.3,4.79c-0.3,0.2-0.63,0.35-0.92,0.57
			c-0.66-0.14-0.65-0.81-0.95-1.23c-0.3-0.41-0.52-0.89-0.82-1.31c-0.43-0.65-0.76-1.35-1.11-2.03c-0.15-0.35-0.35-0.67-0.57-0.98
			c-0.27-0.67-0.8-1.21-0.96-1.94c0-0.37-0.09-0.69-0.49-0.83c-0.46-0.45-0.51-1.08-0.75-1.64c-0.09-0.28-0.19-0.56-0.23-0.86
			c-0.03-0.27-0.01-0.54-0.06-0.8c-0.03-0.12-0.1-0.12-0.19-0.06c-0.06,0.04-0.12,0.07-0.19,0.1c-0.36,0.16-0.74,0.28-1.13,0.36
			c-0.39,0.1-0.77,0.24-1.13,0.43c-0.46,0.19-0.85,0.51-1.29,0.73c-0.79,0.34-1.39,0.94-2.07,1.43c-0.16,0.12-0.29,0.27-0.39,0.44
			c-0.3,0.42-0.65,0.82-0.88,1.29c-0.17,0.38-0.31,0.77-0.31,1.19c-0.04,3.05,1.8,4.76,4.23,6.06c1.44,0.81,2.99,1.33,4.61,1.63
			c0.22,0.06,0.44,0.11,0.67,0.13c0.14,0.01,0.28,0.04,0.41,0.07c0.71,0.09,1.4,0.27,2.11,0.27c0.4-0.01,0.78,0.04,1.17,0.15
			c0.49,0.06,0.97,0.07,1.45-0.09c0.85-0.07,1.69-0.3,2.55-0.25c0.34,0.02,0.66-0.09,0.99-0.15c0.37-0.03,0.72-0.16,1.09-0.21
			c1.18-0.27,2.33-0.65,3.43-1.16c1.72-0.67,3.11-1.77,4.19-3.28c0.15-0.24,0.29-0.49,0.56-0.6
			C301.96,381.45,302.6,381.63,302.73,382.58z"/>
		<path class="st1" d="M301.48,378.52c0.38-0.41,0.44-1.19,1.25-1.1c0,1.29,0,2.58,0,3.87c-0.47,0.24-0.73-0.03-0.9-0.41
			c-0.12-0.27-0.15-0.58-0.32-0.83c-0.12-0.32-0.13-0.66-0.21-0.99C301.29,378.85,301.29,378.66,301.48,378.52z"/>
		<path class="st2" d="M301.67,380c0.26,0.15,0.34,0.39,0.34,0.67c0,0.48,0.37,0.55,0.73,0.61c0,0.43,0,0.86,0,1.29
			c-0.27-0.78-0.95-0.85-1.62-0.92c-0.21-0.52,0.11-0.96,0.22-1.44C301.41,380.09,301.52,380.01,301.67,380z"/>
		<path class="st3" d="M301.46,380.2c0.05,0.52-0.2,0.97-0.34,1.45c-0.13,0.19-0.25,0.37-0.38,0.56c-0.68-0.17-1.14,0-1.57,0.65
			c-0.4,0.6-0.86,1.23-1.62,1.54c-0.47,0.19-0.8,0.63-1.01,1.13c-1.08,0.67-2.29,0.96-3.5,1.25c0.15-1.43-0.37-2.66-0.81-4
			c-0.41-1.25-0.89-2.76-0.43-4.22c-0.01-0.54,0.16-1.09,0.04-1.63c0-0.09,0.02-0.18,0.05-0.26c0.47-0.46,0.54-0.93,0.02-1.4
			c-0.21-0.23-0.34-0.5-0.4-0.8c-0.03-0.17-0.03-0.34,0-0.51c0.13-0.24,0.38-0.44,0.56-0.23c0.8,0.93,1.28,0.07,1.85-0.3
			c0.18-0.11,0.25-0.33,0.4-0.48c0.13-0.06,0.25-0.05,0.36,0.03c0.12,0.08,0.25,0.16,0.37,0.25c0.31,0.13,0.62,0.36,0.97,0.08
			c0.31,0,0.54,0.15,0.75,0.36c0.16,0.23,0.35,0.41,0.66,0.35c0.29,0,0.39,0.25,0.54,0.43c0.3,0.2,0.61,0.41,0.91,0.61
			c0.4,0.57,0.72,1.22,1.47,1.42c0.64,0.53,0.74,1.37,1.12,2.05c-0.01,0.18-0.01,0.35-0.02,0.53
			C301.59,379.44,301.59,379.82,301.46,380.2z"/>
		<path class="st3" d="M277.85,385.17c-2.6-0.94-4.49-3.67-4.35-6.28c0.84-0.43,0.81,0.62,1.45,0.82c0.1-0.74,0.48-1.43,0.34-2.16
			c-0.11-0.55-0.19-0.95,0.46-1.15c0.24-0.07,0.2-0.36,0.27-0.55c0.08-0.24,0.23-0.39,0.47-0.47c0.36-0.12,0.72-0.09,1.08-0.03
			c0.28,0.05,0.53,0.03,0.79-0.11c1.26-0.69,1.98-0.44,2.92,0.71c0.53,0.65,1.08,1.2,1.06,2.11c-0.01,0.34-0.04,0.68-0.35,0.78
			c-0.94,0.29-1.01,1.44-1.86,1.82c-0.28,0.12-0.06,0.37,0.08,0.53c0.31,0.35,0.74,0.39,1.16,0.47c0.28,0.05,0.53,0.18,0.58,0.5
			c0.04,0.29-0.15,0.46-0.36,0.58c-0.9,0.52-1.45,1.59-2.66,1.67C278.52,384.43,278.36,385.13,277.85,385.17z"/>
		<path class="st4" d="M277.85,385.17c0.47-0.6,0.83-1.34,1.82-1.18c0.18,0.03,0.42-0.3,0.63-0.48c0.37-0.31,0.61-0.77,1.1-0.94
			c0.21-0.07,0.44-0.13,0.4-0.41c-0.04-0.31-0.32-0.37-0.56-0.33c-0.63,0.1-1.02-0.26-1.4-0.68c-0.37-0.4-0.42-0.67,0.2-0.81
			c0.17-0.04,0.44-0.1,0.47-0.22c0.24-0.82,0.79-1.3,1.56-1.59c0.07-0.02,0.14-0.24,0.1-0.31c-0.18-0.37-0.12-1.06-0.16-1.08
			c-0.8-0.46-0.9-1.61-1.74-1.91c-0.58-0.21-1.35-0.56-1.87,0.29c-0.13,0.21-0.41,0.17-0.67,0.09c-0.37-0.12-0.77-0.18-1.16-0.05
			c-0.07-0.39,0.21-0.47,0.48-0.56c0.54,0.05,0.69-0.51,1.07-0.7c0.09-0.04,0.19-0.06,0.29-0.08c1.12-0.05,2.25-0.14,3.3,0.41
			c0.36,0.5,0.34,1.18,0.74,1.66c0.35,0.13,0.32,0.52,0.51,0.76c0.12,0.75,0.84,1.22,0.93,1.98c0.11,0.23,0.05,0.47,0.06,0.71
			c0.03,0.39,0.24,0.34,0.49,0.21c0.37,0.68,0.73,1.35,1.1,2.03c0.18,0.36-0.02,0.48-0.31,0.39c-0.71-0.22-1.16,0.04-1.51,0.66
			c-0.12,0.21-0.36,0.32-0.59,0.42c-0.64,0.26-0.74,0.78-0.62,1.36c0.12,0.59,0.58,0.81,1.13,0.89c0.35,0.05,0.86-0.17,0.86,0.49
			c-0.19,0.3-0.53,0.24-0.81,0.33c-0.08,0.03-0.15,0.05-0.23,0.06c-0.3,0.04-0.6,0.09-0.87,0.23
			C280.89,386.66,279.31,386.08,277.85,385.17z"/>
		<path class="st4" d="M291.94,378.53c0.27,0.22,0.23,0.51,0.07,0.74c-0.34,0.52,0.05,0.95,0.08,1.42c0.11,1.5,0.66,2.81,1.27,4.14
			c0.27,0.59-0.19,1.3-0.33,1.95c-0.38-0.05-0.7,0.33-1.1,0.18c-0.06-0.06-0.1-0.14-0.1-0.22c-0.09-0.74-0.7-0.66-1.16-0.67
			c-0.75-0.02-1.55,0.39-2.1-0.52c-0.11-0.18-0.54,0.11-0.7-0.23c-0.02-0.04-0.04-0.08-0.07-0.11c-0.04-0.08-0.06-0.17-0.08-0.26
			c-0.02-0.09-0.03-0.18-0.03-0.27c0-0.23,0.03-0.46,0.23-0.62c0.63-1.66,0.27-3.24-0.36-4.8c0.19-1.35,0.6-1.62,1.87-1.28
			c0.24,0.06,0.52,0.43,0.78,0.01c0.25-0.15,0.34,0.06,0.47,0.2c0.08,0.12,0.13,0.26,0.2,0.38c0.04,0.05,0.08,0.1,0.13,0.14
			c0.09,0.04,0.19,0.03,0.28,0.01C291.53,378.67,291.71,378.53,291.94,378.53z"/>
		<path class="st5" d="M290.3,377.95c-0.02,0.31,0.12,0.81-0.5,0.39c-0.19-0.13-0.47-0.11-0.68-0.2c-0.69-0.3-1.08-0.06-1.26,0.65
			c-0.04,0.17-0.18,0.31-0.27,0.46c-1.08-1.97-2.16-3.93-3.24-5.9c-0.05-0.1-0.06-0.22-0.1-0.33c-0.09-0.1-0.15-0.24-0.08-0.33
			c0.64-0.78-0.01-1.49-0.12-2.22c-0.07-0.49-0.52-0.28-0.81-0.35c-0.4-0.3-0.18-0.67-0.1-1.02c0.03-0.18,0.09-0.35,0.15-0.53
			c0.75-0.22,1.54,0.26,1.88,1.26c0.18,0.52,0.45,0.66,0.93,0.56c1.16,2.04,2.31,4.08,3.47,6.12c0.18,0.31,0.38,0.6,0.57,0.89
			c0.09,0.11,0.24,0.18,0.25,0.34C290.39,377.84,290.36,377.9,290.3,377.95z"/>
		<path class="st6" d="M294.32,373.03c0,0.88-0.85,0.95-1.33,1.31c-0.32,0.24-0.84,0.18-0.96-0.47c-0.04-0.19-0.31,0.01-0.47,0.05
			c-0.07,0.08-0.12,0.07-0.15-0.03c0.01-0.12,0.02-0.23,0.02-0.35c0.11-0.26,0-0.43-0.23-0.54c-1.06-1.85-2.13-3.69-3.19-5.54
			c-0.06-0.1-0.06-0.22-0.09-0.34c-0.16-0.71-0.19-1.41,0.2-2.07c0.64-0.12,0.75,0.4,0.9,0.8c0.19,0.52,0.38,1.02,0.73,1.46
			c0.51,0.65,0.99,1.35,2,1.09c0.15-0.04,0.29,0.07,0.41,0.16c0.8,1.12,1.37,2.34,1.65,3.69
			C293.99,372.51,294.29,372.67,294.32,373.03z"/>
		<path class="st3" d="M284.44,386.26c-0.03-0.33-0.24-0.37-0.52-0.35c-1.29,0.07-1.99-0.77-1.66-1.98c0.08-0.3,2.16-1.82,2.42-1.93
			c0.32-0.13,0.59,0.58,0.86,0c0.75,0.74,1.03,1.79,1.63,2.62c0.14,0.01,0.25,0.08,0.34,0.18c0.09,0.11,0.15,0.23,0.18,0.38
			c0.01,0.1,0.01,0.2-0.02,0.3C287.05,386.56,285.78,386.87,284.44,386.26z"/>
		<path class="st5" d="M292.14,368.57c-0.52-0.13-1.06,0.47-1.56,0c-0.74-0.68-1.47-1.38-1.71-2.4c-0.1-0.44-0.3-0.78-0.59-1.09
			c-0.25-0.45,0.02-0.74,0.33-1c0.33-0.27,0.67-0.22,0.97,0.07C290.46,365.62,291.4,367.04,292.14,368.57z"/>
		<path class="st7" d="M289.58,364.16c-0.8-0.22-1.17,0.18-1.3,0.93c-0.4,0.63,0,1.41-0.37,2.05c-0.93-1.06-1.24-2.33-1.24-3.7
			c0.81-0.35,1.62-0.76,2.5-0.18C289.32,363.54,289.54,363.8,289.58,364.16z"/>
		<path class="st8" d="M276.21,375.95c0.01,0.37-0.07,0.68-0.51,0.73c-0.47,0.06-0.47,0.32-0.23,0.63c0.24,0.31,0.23,0.62,0.04,0.94
			c-0.21,0.36-0.23,0.75-0.22,1.16c0.01,0.27,0.04,0.6-0.31,0.69c-0.32,0.08-0.49-0.23-0.63-0.44c-0.23-0.34-0.25-0.86-0.86-0.76
			c-0.07-0.49,0.18-0.88,0.37-1.29c0.59-0.23,0.91-0.64,0.91-1.29c0-0.22,0.17-0.3,0.33-0.39
			C275.46,376.29,275.84,375.63,276.21,375.95z"/>
		<path class="st9" d="M296.53,385.53c-0.14-0.03-0.39-0.08-0.21-0.24c0.48-0.43,0.78-1,1.45-1.3c0.54-0.24,1.01-0.83,1.33-1.43
			c0.43-0.82,0.92-0.92,1.63-0.35c-0.6,1.15-1.61,1.87-2.64,2.57C297.62,385.11,297.14,385.46,296.53,385.53z"/>
		<path class="st10" d="M283.31,369.13c0.17,0.31-0.45,0.63,0.01,0.93c0.35,0.95,0.63,1.91,0.76,2.92c-0.6,0.96-1.16-0.03-1.72-0.08
			c-0.42-0.04-0.28-0.56-0.24-0.93c0.11-1.06,0.47-2.04,0.86-3.02C283.17,368.85,283.24,369,283.31,369.13z"/>
		<path class="st11" d="M284.44,386.26c0.54,0,1.08-0.01,1.62,0c0.79,0.01,1.33-0.3,1.49-1.12c0.05-0.05,0.1-0.08,0.17-0.09
			c0.07,0.01,0.13,0.04,0.17,0.1l0.02,0.02c0.16,0.71,0.8,0.81,1.34,1.04c0.62,0.3,1.28,0.12,1.92,0.2c0.3,0.04,0.57,0.14,0.76,0.41
			c0,0.05,0,0.1,0,0.15c-0.32,0.01-0.57,0.35-0.91,0.19c-0.79-0.42-1.6,0.01-2.41-0.05c-1.15-0.09-2.3-0.03-3.43-0.28
			c-0.19,0.01-0.39,0-0.58-0.04c-0.35-0.14-0.79-0.02-1.08-0.34C283.78,386.13,284.13,386.3,284.44,386.26z"/>
		<path class="st12" d="M281.72,374.65c-1.17-0.06-2.32-0.27-3.5-0.18c-0.1-0.36,0.23-0.51,0.36-0.76c0.29-0.35,0.75-0.32,1.11-0.5
			c0.59,0.22,1.29,0.03,1.8,0.52C281.56,374.04,281.64,374.35,281.72,374.65z"/>
		<path class="st13" d="M285.17,386.63c1.27,0.16,2.54,0.18,3.81,0.23c0.33,0.01,0.65-0.06,0.96-0.03c0.37,0.03,0.87-0.28,1.08,0.32
			c-0.91,0.08-1.83,0.16-2.74,0.24c-0.49,0.17-1.01-0.06-1.49,0.14c-0.32-0.27-0.72-0.11-1.07-0.2c-0.19-0.2-0.57-0.14-0.64-0.49
			C285.08,386.76,285.11,386.68,285.17,386.63z"/>
		<path class="st4" d="M284.08,372.98c-0.49-0.91-0.81-1.86-0.76-2.92c0.43-0.36,0.74-0.43,0.95,0.25c0.17,0.53,0.17,1.09,0.54,1.6
			c0.26,0.36-0.62,0.59-0.56,1.11C284.19,373.01,284.14,372.99,284.08,372.98z"/>
		<path class="st14" d="M286.09,370.4c-0.15,0.32-0.37,0.46-0.72,0.3c-0.29-0.12-0.36-0.34-0.39-0.64
			c-0.08-0.67-0.89-1.39-1.61-1.48c-0.17-0.18-0.17-0.36-0.01-0.54c0.12-0.12,0.25-0.25,0.37-0.37c0.22-0.08,0.41,0,0.57,0.15
			c0.21,0.27,0.28,0.66,0.68,0.75C285.36,369.18,285.73,369.79,286.09,370.4z"/>
		<path class="st15" d="M291.4,373.9c0.05,0.01,0.1,0.02,0.15,0.03c0.01,0.17,0.02,0.35,0.03,0.52c0.34,0.81,0.12,1.68,0.23,2.51
			c0.03,0.09,0.03,0.18,0,0.28c-0.42,0.39-0.88,0.66-1.49,0.54c-0.06-0.12-0.12-0.24-0.18-0.36c0.58-0.08,0.8-0.57,0.9-1.01
			C291.22,375.59,291.28,374.74,291.4,373.9z"/>
		<path class="st16" d="M289.16,363.24c-0.39-0.12-0.75-0.23-1.15,0.09c-0.39,0.31-0.91-0.24-1.35,0.09
			c0.06-0.37,0.12-0.74,0.18-1.1c0.64-0.24,1.22,0.04,1.82,0.18C289,362.63,289.04,362.97,289.16,363.24z"/>
		<path class="st17" d="M276.21,375.95c-0.22,0-0.38,0.11-0.53,0.25c-0.42,0.41-0.52,0.1-0.57-0.27c0.72-0.51,1.27-1.26,2.18-1.47
			c0.04,0.02,0.08,0.03,0.12,0.05c0.32,0.4-0.07,0.51-0.29,0.7c-0.26,0-0.45,0.12-0.55,0.37
			C276.33,375.59,276.21,375.71,276.21,375.95z"/>
		<path class="st18" d="M288.67,362.5c-0.64,0.28-1.22-0.08-1.82-0.18c-0.07-0.38,0.23-0.62,0.37-0.92c0.46-0.19,0.73,0.2,1.08,0.35
			C288.64,361.89,288.66,362.19,288.67,362.5z"/>
		<path class="st19" d="M296.7,373.77c-0.25-0.12-0.49-0.24-0.74-0.37c-0.09,0.06-0.14,0.03-0.18-0.06c0.41-0.72,0.89-0.09,1.3-0.02
			c0.53,0.1,1.03,0.4,0.9,1.12c-0.18-0.1-0.37-0.2-0.55-0.31C297.09,374.19,296.88,374,296.7,373.77z"/>
		<path class="st20" d="M281.48,373.74c-0.62-0.09-1.27-0.11-1.8-0.52c0.43-0.12,0.85-0.24,1.28-0.37c0.04,0.03,0.09,0.05,0.15,0.04
			c0.05-0.01,0.1-0.04,0.14-0.07c0,0,0.07-0.03,0.07-0.03C281.67,373.06,281.47,373.42,281.48,373.74z"/>
		<path class="st21" d="M285.17,386.81c0.12,0.24,0.56,0.14,0.55,0.52c-0.75,0.02-1.48-0.1-2.2-0.32c-0.05-0.21,0.08-0.29,0.24-0.35
			C284.24,386.59,284.71,386.67,285.17,386.81z"/>
		<path class="st22" d="M300.36,376.48c-1.07,0.13-1.24-0.67-1.47-1.42C299.49,375.42,299.92,375.95,300.36,376.48z"/>
		<path class="st23" d="M284.45,379.97c-0.04,0.19,0.07,0.48-0.24,0.49c-0.21,0.01-0.42-0.11-0.47-0.36
			c-0.08-0.37-0.03-0.73,0.16-1.06C284.26,379.26,284.38,379.6,284.45,379.97z"/>
		<path class="st17" d="M274.77,376.32c0.23,0.92-0.08,1.35-0.91,1.29C274.08,377.11,274.44,376.73,274.77,376.32z"/>
		<path class="st24" d="M285,368.56c-0.7,0.23-0.7-0.27-0.74-0.72c0.08-0.17,0.17-0.3,0.39-0.19
			C284.76,367.96,284.88,368.26,285,368.56z"/>
		<path class="st25" d="M278.58,373.72c0.09,0.35-0.15,0.55-0.36,0.76c-0.06,0-0.12,0-0.18,0c-0.23,0.17-0.47,0.18-0.71,0.02
			c0,0-0.04-0.03-0.04-0.03C277.69,374.17,278.05,373.79,278.58,373.72z"/>
		<path class="st26" d="M294.32,373.03c-0.23-0.22-0.62-0.33-0.52-0.77c0.5-0.03,0.93,0.04,0.89,0.71
			C294.56,372.99,294.44,373.01,294.32,373.03z"/>
		<path class="st27" d="M284.64,367.65c-0.13,0.06-0.26,0.13-0.39,0.19c-0.17-0.06-0.34-0.12-0.52-0.18
			c0.06-0.18,0.11-0.36,0.17-0.55c0.05-0.06,0.11-0.11,0.19-0.13c0.12-0.01,0.23,0.02,0.31,0.12
			C284.51,367.28,284.67,367.43,284.64,367.65z"/>
		<path class="st28" d="M287.34,384.8c-0.06-0.06-0.11-0.12-0.17-0.17c0.03-0.49,0.34-0.6,0.76-0.57c-0.02,0.24-0.03,0.48-0.05,0.72
			c-0.04,0.06-0.09,0.1-0.15,0.13c-0.07,0.01-0.14,0-0.2-0.02C287.46,384.86,287.4,384.83,287.34,384.8z"/>
		<path class="st29" d="M288.29,361.75c-0.47,0.23-0.69-0.32-1.08-0.35c0-0.06,0-0.13,0-0.19c0.24-0.21,0.48-0.18,0.72-0.01
			C288.16,361.32,288.31,361.48,288.29,361.75z"/>
		<path class="st30" d="M287.54,360.31c-0.05-0.19-0.23-0.36-0.13-0.59c0.7,0.41,0.7,0.41,0.34,0.94c-0.03-0.01-0.07-0.01-0.1-0.02
			c-0.06-0.04-0.11-0.09-0.15-0.15C287.48,360.43,287.49,360.36,287.54,360.31z"/>
		<path class="st31" d="M283.71,386.81c-0.06,0.07-0.13,0.14-0.19,0.2c-0.12-0.02-0.24-0.03-0.36-0.05
			c-0.26-0.44,0.22-0.36,0.37-0.52c0,0,0,0,0,0c0.37,0.06,0.78-0.15,1.1,0.18C284.35,386.84,283.98,386.58,283.71,386.81z"/>
		<path class="st11" d="M283.52,386.44c-0.1,0.19-0.39,0.25-0.37,0.52c-0.2,0.01-0.42,0.13-0.56-0.13
			C282.71,386.23,283.19,386.52,283.52,386.44z"/>
		<path class="st32" d="M282.97,377.07c-0.33-0.15-0.39-0.47-0.51-0.76C283.23,376.16,282.88,376.76,282.97,377.07z"/>
		<path class="st33" d="M287.93,361.21c-0.24,0-0.48,0.01-0.72,0.01c-0.19-0.36,0.29-0.32,0.32-0.54c0.06-0.08,0.12-0.08,0.17,0
			c0,0,0.06-0.02,0.06-0.02C287.82,360.84,287.88,361.02,287.93,361.21z"/>
		<path class="st34" d="M284.05,367.1c-0.05,0.01-0.09,0.02-0.14,0.02c-0.21-0.14-0.29-0.39-0.14-0.54c0.2-0.21,0.36,0.02,0.5,0.19
			c0.04,0.03,0.06,0.07,0.06,0.11c0,0.04-0.01,0.06-0.02,0.06C284.24,367.02,284.13,367.04,284.05,367.1z"/>
		<path class="st35" d="M291.19,373.01c0.17-0.06,0.35-0.2,0.48,0.03c0.15,0.26-0.07,0.38-0.24,0.51
			C291.34,373.37,291.26,373.19,291.19,373.01z"/>
		<path class="st36" d="M286.79,387.53c0.47-0.35,0.99-0.11,1.49-0.14C287.81,387.7,287.29,387.49,286.79,387.53z"/>
		<path class="st37" d="M283.36,368.04c0,0.18,0,0.36,0.01,0.54c-0.02,0.18-0.04,0.37-0.06,0.55c-0.11-0.06-0.22-0.12-0.33-0.18
			C283.21,368.69,283.04,368.26,283.36,368.04z"/>
		<path class="st14" d="M295.78,373.34c0.06,0.02,0.12,0.04,0.18,0.06c-0.37,0.29-0.66,0.18-0.9-0.18
			C295.32,373.1,295.54,373.27,295.78,373.34z"/>
		<path class="st38" d="M284.05,367.1c0.06-0.06,0.12-0.12,0.18-0.19c0.07-0.06,0.12-0.05,0.17,0.02c0,0.06,0,0.12,0,0.18
			C284.29,367.11,284.17,367.1,284.05,367.1z"/>
		<path class="st39" d="M287.7,360.68c-0.06,0-0.11,0-0.17,0c-0.1-0.02-0.17-0.07-0.14-0.18c0.05-0.07,0.11-0.08,0.18-0.02
			C287.67,360.5,287.74,360.56,287.7,360.68z"/>
		<path class="st40" d="M284.41,366.93c-0.06,0-0.12-0.01-0.17-0.02c0.01-0.05,0.02-0.1,0.03-0.15
			C284.38,366.76,284.44,366.81,284.41,366.93z"/>
		<path class="st41" d="M281.15,372.79c0.06-0.15,0.12-0.16,0.18,0c0,0,0.03,0.04,0.03,0.04l-0.03,0.04l-0.09,0.02
			c0,0-0.09-0.01-0.09-0.01C281.15,372.88,281.15,372.79,281.15,372.79z"/>
		<path class="st42" d="M281.15,373c-0.06-0.05-0.12-0.1-0.18-0.15c0.06-0.02,0.12-0.04,0.18-0.06c0,0-0.04,0.03-0.04,0.03
			l0.02,0.05c0.05,0.02,0.07,0.05,0.05,0.08C281.17,372.98,281.16,373,281.15,373z"/>
		<path class="st43" d="M287.57,360.46c-0.06,0.01-0.12,0.02-0.18,0.02c-0.02-0.12,0.03-0.18,0.15-0.18
			C287.55,360.36,287.56,360.41,287.57,360.46z"/>
		<path class="st44" d="M301.46,380.2c0-0.38,0-0.77,0-1.15c0.35,0.25,0.08,0.64,0.21,0.94C301.6,380.07,301.53,380.14,301.46,380.2
			z"/>
		<path class="st45" d="M291.73,377.23c0.02-0.06,0.04-0.12,0.05-0.17c0.01-0.12,0.08-0.18,0.19-0.19c0.35,0.56,0.08,1.11-0.03,1.66
			c-0.13,0.32-0.39,0.39-0.7,0.36c-0.03-0.02-0.06-0.04-0.1-0.06c-0.03-0.07-0.04-0.15-0.03-0.22c0.06-0.22,0.21-0.4,0.25-0.63
			C291.41,377.68,291.54,377.44,291.73,377.23z"/>
		<path class="st46" d="M291.95,375.21c0.53-0.05,0.55,0.29,0.54,0.68c-0.02,0.37,0.1,0.82-0.52,0.79
			c-0.09-0.05-0.15-0.13-0.18-0.22c-0.04-0.39-0.1-0.77,0.05-1.15C291.88,375.28,291.92,375.25,291.95,375.21z"/>
		<path class="st47" d="M291.91,376.51c0.02,0.06,0.04,0.12,0.06,0.17c0,0.06,0,0.12,0,0.18c-0.06,0.06-0.13,0.13-0.19,0.19
			c-0.48-0.84-0.12-1.74-0.19-2.61c0.22,0.2,0.34,0.46,0.37,0.76c0,0-0.04-0.01-0.04-0.01
			C291.81,375.64,291.81,376.07,291.91,376.51z"/>
		<path class="st48" d="M296.7,373.77c0.24,0.12,0.48,0.25,0.73,0.37C296.96,374.45,296.79,374.19,296.7,373.77z"/>
		<path class="st12" d="M277.33,374.49c0.24-0.01,0.47-0.01,0.71-0.02c-0.17,0.42-0.29,0.89-0.91,0.74
			C277.2,374.97,277.54,374.81,277.33,374.49z"/>
		<path class="st3" d="M289.2,386.26c-0.82,0.1-1.28-0.21-1.27-1.09c0.14-0.01,0.21,0.34,0.33,0.13c0.3-0.53,0.48-0.2,0.58,0.08
			c0.22,0.55,0.53,0.73,1.11,0.52c0.68-0.25,1.36,0,2,0.19c0.7,0.21-0.02,0.48-0.01,0.72c-0.24-0.06-0.49-0.12-0.73-0.18
			C290.56,386.35,289.82,386.63,289.2,386.26z"/>
		<path class="st49" d="M291.73,377.23c-0.06,0.31-0.12,0.61-0.19,0.92c-0.28,0.18-0.55,0.36-0.9,0.2c-0.11-0.13-0.23-0.27-0.34-0.4
			c-0.01-0.06-0.01-0.12,0.02-0.17C290.79,377.6,291.26,377.42,291.73,377.23z"/>
		<path class="st50" d="M290.64,378.35c0.28-0.17,0.58-0.22,0.9-0.2c-0.12,0.18-0.24,0.37-0.36,0.55c-0.04,0.06-0.1,0.1-0.17,0.11
			c-0.07-0.01-0.13-0.04-0.18-0.1C290.63,378.66,290.67,378.49,290.64,378.35z"/>
		<path class="st3" d="M290.86,379.68c0.02,0.03-0.07-0.07-0.08-0.18c0-0.13,0.13-0.22,0.25-0.18c0.1,0.03,0.22,0.13,0.24,0.21
			C291.3,379.67,291.18,379.73,290.86,379.68z"/>
		<path class="st51" d="M291.24,378.88c-0.12,0.19-0.25,0.31-0.37,0c0.04-0.05,0.09-0.08,0.16-0.08c0.07,0,0.12,0.03,0.15,0.09
			L291.24,378.88z"/>
		<path class="st52" d="M287.74,384.79c0.05-0.01,0.1-0.01,0.14-0.02c0,0.06,0,0.12,0,0.18c-0.04,0.02-0.08,0.04-0.13,0.06
			c-0.03-0.04-0.06-0.07-0.09-0.11C287.69,384.87,287.72,384.83,287.74,384.79z"/>
		<path class="st53" d="M287.75,384.99c0.05-0.01,0.09-0.02,0.14-0.04c0.01,0.06,0.01,0.12,0.02,0.19c-0.06,0-0.12-0.01-0.18-0.01
			c-0.05-0.04-0.06-0.08-0.03-0.1C287.71,385,287.73,384.99,287.75,384.99z"/>
		<path class="st54" d="M291.02,378.89c-0.05,0-0.1,0-0.15,0c-0.02-0.06-0.03-0.11-0.05-0.17c0.07,0,0.14-0.01,0.2-0.01
			c0.05,0.04,0.06,0.08,0.05,0.12C291.05,378.87,291.04,378.89,291.02,378.89z"/>
		<path class="st55" d="M287.34,384.8c0.07,0,0.13,0,0.2-0.01c0.03,0.04,0.06,0.07,0.08,0.11c-0.03,0.03-0.06,0.07-0.09,0.1
			C287.47,384.93,287.41,384.86,287.34,384.8z"/>
		<path class="st56" d="M287.75,384.99c-0.01,0.05-0.02,0.09-0.03,0.14c0,0-0.08,0.02-0.08,0.02s-0.08-0.01-0.08-0.01
			c0-0.05-0.01-0.1-0.02-0.14c0,0,0.02-0.08,0.02-0.08c0.06-0.03,0.11-0.02,0.15,0.03L287.75,384.99z"/>
		<path class="st57" d="M289.2,386.26c0.69,0,1.39-0.01,2.01,0.37C290.54,386.48,289.76,386.97,289.2,386.26z"/>
		<path class="st58" d="M283.71,386.81c0.26-0.31,0.61-0.14,0.92-0.18c0.18,0,0.37,0,0.55,0c0,0.06,0,0.12,0,0.18
			C284.68,386.81,284.19,386.81,283.71,386.81z"/>
		<path class="st59" d="M281.15,373c0-0.04-0.01-0.09-0.01-0.13c0.07,0,0.13,0,0.2,0C281.27,372.91,281.21,372.95,281.15,373z"/>
		<path class="st60" d="M287.71,384.95c-0.05,0.01-0.11,0-0.15-0.03c-0.01-0.04-0.01-0.08-0.01-0.13c0.07,0,0.13,0,0.2,0
			C287.74,384.85,287.73,384.9,287.71,384.95z"/>
		<path class="st61" d="M291.02,378.89c0-0.06,0-0.12,0-0.18c0.05,0,0.1,0,0.15-0.01c0,0.07,0,0.13,0,0.2
			C291.12,378.89,291.07,378.89,291.02,378.89z"/>
		<path class="st62" d="M291.91,376.51c-0.25-0.44-0.24-0.87,0-1.31C291.91,375.64,291.91,376.07,291.91,376.51z"/>
	</g>
</g>
</svg>
